<svg width="120" height="120" viewBox="0 0 120 120" fill="none" xmlns="http://www.w3.org/2000/svg">
<circle cx="60" cy="60" r="60" fill="black"/>
<path d="M36.8627 81.48C34.7827 81.48 33.1027 80.92 31.8227 79.8C30.5827 78.64 29.9627 77.18 29.9627 75.42C29.9627 73.66 30.5827 72.2 31.8227 71.04C33.1027 69.88 34.7827 69.3 36.8627 69.3C38.9027 69.3 40.5427 69.88 41.7827 71.04C43.0627 72.2 43.7027 73.66 43.7027 75.42C43.7027 77.14 43.0627 78.58 41.7827 79.74C40.5427 80.9 38.9027 81.48 36.8627 81.48ZM36.8627 57.36C34.7827 57.36 33.1027 56.8 31.8227 55.68C30.5827 54.52 29.9627 53.06 29.9627 51.3C29.9627 49.54 30.5827 48.08 31.8227 46.92C33.1027 45.76 34.7827 45.18 36.8627 45.18C38.9027 45.18 40.5427 45.76 41.7827 46.92C43.0627 48.08 43.7027 49.54 43.7027 51.3C43.7027 53.02 43.0627 54.46 41.7827 55.62C40.5427 56.78 38.9027 57.36 36.8627 57.36ZM46.0282 94.14V93.06C49.9882 88.94 53.0682 84.02 55.2682 78.3C57.5082 72.58 58.6282 66.68 58.6282 60.6C58.6282 54.44 57.4882 48.48 55.2082 42.72C52.9682 36.92 49.8082 31.96 45.7282 27.84V26.76H57.2482C61.2082 30.44 64.2882 35.28 66.4882 41.28C68.7282 47.24 69.8482 53.68 69.8482 60.6C69.8482 67.44 68.7482 73.82 66.5482 79.74C64.3482 85.66 61.3282 90.46 57.4882 94.14H46.0282ZM83.1518 81.48C81.0718 81.48 79.3918 80.92 78.1118 79.8C76.8718 78.64 76.2518 77.18 76.2518 75.42C76.2518 73.66 76.8718 72.2 78.1118 71.04C79.3918 69.88 81.0718 69.3 83.1518 69.3C85.1918 69.3 86.8318 69.88 88.0718 71.04C89.3518 72.2 89.9918 73.66 89.9918 75.42C89.9918 77.14 89.3518 78.58 88.0718 79.74C86.8318 80.9 85.1918 81.48 83.1518 81.48ZM83.1518 57.36C81.0718 57.36 79.3918 56.8 78.1118 55.68C76.8718 54.52 76.2518 53.06 76.2518 51.3C76.2518 49.54 76.8718 48.08 78.1118 46.92C79.3918 45.76 81.0718 45.18 83.1518 45.18C85.1918 45.18 86.8318 45.76 88.0718 46.92C89.3518 48.08 89.9918 49.54 89.9918 51.3C89.9918 53.02 89.3518 54.46 88.0718 55.62C86.8318 56.78 85.1918 57.36 83.1518 57.36Z" fill="#FFFAFA"/>
</svg>
